<svg width="60" height="60" viewBox="0 0 60 60" fill="none" xmlns="http://www.w3.org/2000/svg">
<rect width="60" height="60" rx="30" fill="#141414"/>
<path d="M37.0585 21.6666H22.9418C22.7831 21.6644 22.6255 21.6935 22.4781 21.7522C22.3307 21.8109 22.1962 21.8981 22.0825 22.0087C21.9687 22.1194 21.8779 22.2514 21.8151 22.3971C21.7524 22.5429 21.719 22.6996 21.7168 22.8583V37.1416C21.719 37.3003 21.7524 37.457 21.8151 37.6028C21.8779 37.7486 21.9687 37.8805 22.0825 37.9912C22.1962 38.1019 22.3307 38.189 22.4781 38.2477C22.6255 38.3064 22.7831 38.3355 22.9418 38.3333H37.0585C37.2171 38.3355 37.3747 38.3064 37.5222 38.2477C37.6696 38.189 37.804 38.1019 37.9178 37.9912C38.0316 37.8805 38.1224 37.7486 38.1851 37.6028C38.2479 37.457 38.2813 37.3003 38.2835 37.1416V22.8583C38.2813 22.6996 38.2479 22.5429 38.1851 22.3971C38.1224 22.2514 38.0316 22.1194 37.9178 22.0087C37.804 21.8981 37.6696 21.8109 37.5222 21.7522C37.3747 21.6935 37.2171 21.6644 37.0585 21.6666ZM26.7418 35.6166H24.2418V28.1166H26.7418V35.6166ZM25.4918 27.0666C25.147 27.0666 24.8164 26.9297 24.5726 26.6859C24.3288 26.4421 24.1918 26.1114 24.1918 25.7666C24.1918 25.4218 24.3288 25.0912 24.5726 24.8474C24.8164 24.6036 25.147 24.4666 25.4918 24.4666C25.6749 24.4459 25.8603 24.464 26.0359 24.5199C26.2114 24.5757 26.3732 24.668 26.5107 24.7908C26.6481 24.9135 26.7581 25.0639 26.8334 25.232C26.9086 25.4002 26.9476 25.5824 26.9476 25.7666C26.9476 25.9509 26.9086 26.133 26.8334 26.3012C26.7581 26.4694 26.6481 26.6198 26.5107 26.7425C26.3732 26.8652 26.2114 26.9575 26.0359 27.0134C25.8603 27.0692 25.6749 27.0874 25.4918 27.0666ZM35.7585 35.6166H33.2585V31.5916C33.2585 30.5833 32.9001 29.925 31.9918 29.925C31.7107 29.927 31.437 30.0152 31.2075 30.1776C30.978 30.34 30.8039 30.5688 30.7085 30.8333C30.6433 31.0292 30.615 31.2354 30.6251 31.4416V35.6083H28.1251C28.1251 35.6083 28.1251 28.7916 28.1251 28.1083H30.6251V29.1666C30.8522 28.7725 31.1826 28.4479 31.5805 28.2276C31.9784 28.0074 32.4289 27.8998 32.8835 27.9166C34.5501 27.9166 35.7585 28.9916 35.7585 31.3V35.6166Z" fill="white"/>
</svg>
