<svg width="60" height="60" viewBox="0 0 60 60" fill="none" xmlns="http://www.w3.org/2000/svg">
<rect width="60" height="60" rx="30" fill="#141414"/>
<path d="M38.3332 24.8335C37.7068 25.1053 37.0444 25.2849 36.3665 25.3668C37.0816 24.9396 37.6176 24.2675 37.8748 23.4752C37.2028 23.8752 36.4671 24.1571 35.6998 24.3085C35.187 23.7523 34.504 23.3821 33.758 23.2559C33.012 23.1297 32.2453 23.2546 31.578 23.6112C30.9107 23.9677 30.3806 24.5356 30.0709 25.2259C29.7611 25.9161 29.6892 26.6897 29.8665 27.4252C28.5077 27.3564 27.1785 27.0026 25.9654 26.3867C24.7522 25.7708 23.6822 24.9066 22.8248 23.8502C22.5241 24.3753 22.3661 24.97 22.3665 25.5752C22.3654 26.1372 22.5034 26.6907 22.768 27.1865C23.0326 27.6823 23.4157 28.1049 23.8832 28.4168C23.3398 28.4021 22.8081 28.2563 22.3332 27.9918V28.0335C22.3372 28.8209 22.6132 29.5828 23.1143 30.1901C23.6154 30.7975 24.3109 31.2132 25.0832 31.3668C24.7859 31.4573 24.4772 31.505 24.1665 31.5085C23.9514 31.506 23.7369 31.4865 23.5248 31.4502C23.7448 32.1275 24.1704 32.7195 24.7424 33.1436C25.3144 33.5678 26.0045 33.8031 26.7165 33.8168C25.5142 34.7629 24.0297 35.2792 22.4998 35.2835C22.2213 35.2844 21.943 35.2677 21.6665 35.2335C23.2285 36.2421 25.0488 36.7774 26.9082 36.7752C28.1912 36.7885 29.4641 36.546 30.6524 36.0619C31.8407 35.5778 32.9207 34.8617 33.8292 33.9556C34.7377 33.0494 35.4565 31.9713 35.9436 30.7843C36.4308 29.5972 36.6765 28.3249 36.6665 27.0418C36.6665 26.9002 36.6665 26.7502 36.6665 26.6002C37.3204 26.1125 37.8844 25.5147 38.3332 24.8335Z" fill="white"/>
</svg>
