<svg width="60" height="60" viewBox="0 0 60 60" fill="none" xmlns="http://www.w3.org/2000/svg">
<rect width="60" height="60" rx="30" fill="#141414"/>
<path d="M39.1669 28.0919C39.2081 26.8991 38.9472 25.7152 38.4085 24.6502C38.043 24.2132 37.5358 23.9183 36.9752 23.8169C34.6565 23.6065 32.3281 23.5203 30.0002 23.5586C27.6807 23.5185 25.3608 23.602 23.0502 23.8086C22.5934 23.8917 22.1706 24.1059 21.8335 24.4252C21.0835 25.1169 21.0002 26.3002 20.9169 27.3002C20.7959 29.0982 20.7959 30.9023 20.9169 32.7002C20.941 33.2631 21.0248 33.8218 21.1669 34.3669C21.2673 34.7878 21.4706 35.1772 21.7585 35.5002C22.0979 35.8364 22.5305 36.0629 23.0002 36.1502C24.7968 36.372 26.607 36.4639 28.4169 36.4252C31.3335 36.4669 33.8919 36.4252 36.9169 36.1919C37.3981 36.1099 37.8428 35.8832 38.1919 35.5419C38.4252 35.3085 38.5994 35.0228 38.7002 34.7086C38.9982 33.7941 39.1446 32.837 39.1335 31.8752C39.1669 31.4086 39.1669 28.5919 39.1669 28.0919ZM28.1169 32.3752V27.2169L33.0502 29.8086C31.6669 30.5752 29.8419 31.4419 28.1169 32.3752Z" fill="white"/>
</svg>
